<svg width="90" height="101" viewBox="0 0 90 101" fill="none" xmlns="http://www.w3.org/2000/svg">
<g id="wXTZ-token-White 1" clip-path="url(#clip0)">
<path id="Vector" d="M26.9731 95.0875L28.0694 95.385C29.4078 95.6564 32.4575 95.7159 35.9005 94.6186C37.3388 94.144 38.7258 93.526 40.0406 92.774L68.4272 76.8792C74.0719 73.6244 76.8665 68.7311 76.811 62.1996L76.8568 26.7506C76.6819 22.4282 75.9603 18.2034 73.3727 14.3035L72.4644 13.0908C72.4644 13.0908 78.1154 17.1442 80.7803 19.4804C81.0302 19.7011 81.264 19.9124 81.4977 20.1444C81.5536 20.1956 81.6167 20.2444 81.6702 20.2932C81.8487 20.4396 81.9974 20.6026 82.1657 20.7579C82.4227 20.9959 82.6892 21.2274 82.923 21.4785C83.033 21.5975 83.1336 21.7165 83.243 21.8314C83.5071 22.1057 83.7593 22.3842 84.0115 22.6609C84.0633 22.7097 84.1145 22.7561 84.1686 22.8001C84.4018 23.0536 84.6355 23.3321 84.8693 23.6088C84.9466 23.704 85.0162 23.7807 85.1031 23.8849C85.1899 23.989 85.2667 24.0985 85.3505 24.2056C88.0577 27.5479 89.8714 31.1283 89.96 34.8408C89.9656 34.894 89.9656 34.9476 89.96 35.0008C89.9005 44.1585 89.916 68.6516 89.916 68.6516C89.9481 74.7466 87.4997 79.3748 82.7618 82.6868C82.233 83.0641 81.6911 83.4211 81.1063 83.7579L70.875 89.6054L56.1538 98.0181C46.5244 103.522 35.4038 99.8585 26.9326 95.0619" fill="white"/>
<path id="Vector_2" d="M4.05259 85.8692L5.20421 86.184C6.60924 86.4696 9.81248 86.5321 13.4279 85.3771C14.9385 84.8776 16.3951 84.2276 17.7757 83.4367L47.5875 66.7041C53.5149 63.2779 56.4495 58.1268 56.3912 51.2509L56.4394 13.9341C56.2544 9.38083 55.4989 4.93349 52.7793 0.827702L52.2743 0C52.2743 0 57.7593 3.81838 60.5587 6.27769C60.821 6.50975 61.0667 6.7323 61.3118 6.97686C61.3712 7.03101 61.4343 7.08218 61.4902 7.13336C61.6746 7.28747 61.834 7.45884 62.0107 7.62248C62.2808 7.8724 62.5603 8.11696 62.806 8.38116C62.9214 8.5079 63.0267 8.63048 63.1421 8.75246C63.4193 9.04106 63.684 9.33441 63.9493 9.62539C64.0034 9.67716 64.057 9.72595 64.1135 9.77236C64.3591 10.0389 64.6042 10.3323 64.8499 10.6233C64.9308 10.7238 65.004 10.8018 65.095 10.9142C65.186 11.0267 65.2669 11.1392 65.3549 11.2516C68.1983 14.7701 70.0875 18.5391 70.1833 22.4473C70.1933 22.5029 70.1973 22.5593 70.1952 22.6157C70.1357 32.2554 70.1107 44.2276 70.1547 53.8679C70.1547 53.9607 70.125 54.0173 70.125 54.1125C70.1227 54.1302 70.1227 54.1482 70.125 54.166L70.1202 58.0397C70.1535 64.4567 67.6094 69.3283 62.6341 72.8152C62.0785 73.2121 61.5128 73.5888 60.8954 73.9458L50.1554 80.0997L34.6966 88.9587C24.5843 94.7526 12.9063 90.8961 4.00977 85.8466" fill="white"/>
<path id="Vector_3" d="M49.5369 0.391113L8.10476 25.2781V25.3097C2.77257 28.9287 0.217118 34.0568 0.0743556 40.6379C0.0594845 49.3291 0.0511566 56.0935 0.0481824 58.5082C0.0455645 58.5561 0.0389989 58.6036 0.0285525 58.6504C0.0255762 58.6675 0.0255762 58.6851 0.0285525 58.7022L0 82.2527C2.12679 82.6962 4.32591 82.6572 6.43562 82.1385C8.52274 81.5952 10.5246 80.7654 12.3841 79.6726C20.5929 74.9444 28.7786 70.1698 37.0136 65.4767C37.9576 64.9412 38.8969 64.3884 39.8433 63.8523C39.8849 63.8302 39.9171 63.8035 39.9587 63.7791L40.4786 63.4815H40.4417C46.5763 59.7721 49.5506 54.3869 49.5059 47.1048C49.4566 39.5056 49.5042 16.0068 49.5369 0.391113ZM31.2597 16.9761V16.2502L35.3189 13.9045V14.5709L34.6794 15.9711L32.0621 21.6097L35.3736 19.7056L35.3855 20.4196L31.2293 22.82V22.128L34.501 15.0982L31.2597 16.9761ZM25.9715 19.3021L30.4067 16.7399L30.4114 17.464L28.5282 18.547L28.5448 24.3719L27.8703 24.7705L27.853 18.9391L25.9715 20.031V19.3021ZM20.4775 22.4695L21.3508 21.9679L22.8872 23.6584L24.3976 20.2L25.2577 19.696L23.3369 23.9452L25.4415 26.1641L24.5522 26.6818L22.8557 24.7456L21.1765 28.6472L20.3294 29.1084L22.3917 24.4712L20.4775 22.4695ZM14.7075 28.032L15.5712 30.8667H15.5939L16.5539 26.9609L17.2083 26.583L18.2106 29.3357L18.2272 29.328L19.0737 25.5084L19.7488 25.121L18.5473 30.1461L17.9245 30.5032L16.8537 27.7773H16.8311L15.896 31.6718L15.2536 32.055L14.0044 28.4253L14.7075 28.032ZM34.9483 56.2607C34.3951 57.3984 33.8181 59.712 30.8368 62.4075C27.2439 65.9355 24.4987 65.9325 23.61 65.6362C21.7273 65.0084 21.7065 62.8657 21.76 61.8107C21.76 61.8107 21.9063 59.4668 24.372 58.4874C25.1685 58.1714 25.6414 58.7355 25.7937 59.008C26.2933 60.1981 25.567 62.1564 24.6527 62.977C25.6045 64.1141 30.6791 61.9059 32.0151 57.0581C32.4755 55.3872 32.6695 53.0951 32.6338 51.8562C32.6665 50.8066 32.3036 49.3071 31.7177 48.4353C31.0081 47.3785 29.7547 47.444 28.6894 47.8468C27.5092 48.2925 26.4718 49.5368 26.4718 49.5368L24.4243 51.952L24.416 51.0642L31.3632 36.4125L21.7903 41.8595C21.7903 41.8595 21.647 53.5735 21.8968 54.2489C22.5636 56.056 24.0317 54.8255 24.4481 54.5059C26.6324 52.2573 26.6145 51.022 26.9465 50.5448C26.9765 50.461 27.0318 50.3886 27.1047 50.3377C27.1632 50.2876 27.2377 50.2602 27.3147 50.2603C27.4658 50.2758 27.6083 50.3382 27.7221 50.4388C27.8668 50.6028 27.9445 50.8152 27.9399 51.0339C27.9226 51.1803 27.8554 51.5224 27.8209 51.6652C27.5074 52.4108 27.3706 53.1701 25.9769 55.1522C25.3618 56.0293 21.3757 59.3871 19.3741 57.937C18.5128 57.1152 18.3289 56.2708 18.3997 55.1516L18.442 43.7607L13.5404 46.5502L13.55 44.5331L18.4473 41.7179L18.4628 37.0022L17.354 36.3477L17.3445 35.2998L20.6191 33.4314L21.7981 33.4736V39.8007L34.4635 32.5489L35.7299 33.2915L27.919 46.702C28.6715 45.9374 29.3627 45.3483 30.3829 45.0311C31.4875 44.6884 32.5071 44.6295 33.4761 44.996C34.382 45.4357 35.6312 46.2765 36.0178 49.8426C36.1297 52.0794 35.5325 55.0855 34.9495 56.2607H34.9483Z" fill="white"/>
</g>
<defs>
<clipPath id="clip0">
<rect width="90" height="100.8" fill="white"/>
</clipPath>
</defs>
</svg>
